# xmcd
#
# Track frame offsets: 
#        150
#        12090
#        25779
#        43650
#        57705
#        76345
#        91900
#        109288
#        123312
#        137831
#        152666
#        165541
#        180492
#        199340
#        215398
#        233386
#        249404
#        265276
#        281144
#        294489
#        309940
#
# Disc length: 4363 seconds
#
# Revision: 6
# Processed by: cddbd v1.5.2PL0 Copyright (c) Steve Scherf et al.
# Submitted via: ExactAudioCopyFreeDBPlugin 1.0
#
DISCID=20110915
DTITLE=Jools Holland and His Rhythm and Blues Orchestra - Swinging The Blu
DTITLE=es Dancing The Ska
DYEAR=2005
DGENRE=Rock
TTITLE0=Mr Robert's Roost
TTITLE1=Juice Head Blues (with Sam Brown)
TTITLE2=Feeling Fine
TTITLE3=You Don't Love Me
TTITLE4=Seven Acts Of Mercy (with Sam Brown)
TTITLE5=Roll This Soul Tonight (with Solomon Burke)
TTITLE6=Dancing Mood
TTITLE7=Casbah Blues
TTITLE8=Double O Boogie
TTITLE9=Just One More Time
TTITLE10=My Country Man (with Ruby Turner)
TTITLE11=Everybody Needs Somebody To Love (with Solomon Burke)
TTITLE12=Riffin' With The Griffin
TTITLE13=After Hours
TTITLE14=Sent For You Yesterday
TTITLE15=Blowin' In The Wind (with Ruby Turner)
TTITLE16=Be My Guest
TTITLE17=Where In The World (with Beverley Knight)
TTITLE18=Sixth Avenue Express
TTITLE19=Something's Going On (with Sam Brown)
TTITLE20=We Shed A Tear
EXTD=YEAR: 2005
EXTT0=
EXTT1=
EXTT2=
EXTT3=
EXTT4=
EXTT5=
EXTT6=
EXTT7=
EXTT8=
EXTT9=
EXTT10=
EXTT11=
EXTT12=
EXTT13=
EXTT14=
EXTT15=
EXTT16=
EXTT17=
EXTT18=
EXTT19=
EXTT20=
PLAYORDER=
